<?xml version="1.0" encoding="utf-8"?>
<!-- Generator: Adobe Illustrator 17.0.0, SVG Export Plug-In . SVG Version: 6.00 Build 0)  -->
<!DOCTYPE svg PUBLIC "-//W3C//DTD SVG 1.1//EN" "http://www.w3.org/Graphics/SVG/1.1/DTD/svg11.dtd">
<svg version="1.1" id="Layer_1" xmlns="http://www.w3.org/2000/svg" xmlns:xlink="http://www.w3.org/1999/xlink" x="0px" y="0px"
	 width="365.982px" height="422.979px" viewBox="729.209 746.019 365.982 422.979"
	 enable-background="new 729.209 746.019 365.982 422.979" xml:space="preserve">
<image overflow="visible" width="105" height="86" xlink:href="BF8C0566.jpg"  transform="matrix(9.744 0 0 9.744 -472.5799 22)">
</image>
<g>
	<path d="M988.738,469.92h-19.809c-1.602-13.638-10.879-24.782-23.455-29.024V305.464c5.965-3.456,9.973-9.574,9.973-16.606
		c0-0.603-0.034-1.193-0.095-1.779H913.52c-0.066,0.586-0.1,1.179-0.1,1.779c0,7.032,4.006,13.145,9.973,16.603v135.438
		c-12.578,4.244-21.844,15.386-23.446,29.019h-19.805c-7.289,0-13.203,5.916-13.203,13.205v11.018h134.991v-11.018
		C1001.926,475.834,996.013,469.92,988.738,469.92z"/>
	<path d="M844.35,268.907c4.424,0,8.225-2.484,10.221-6.106c6.845-4.28,19.153-12.535,33.234-14.992
		c5.442-0.958,13.315-0.289,18.48,2.037c1.57,0.705,4.562,2.489,7.695,4.929c-0.345,1.5-0.559,3.043-0.559,4.647
		c0,11.604,9.416,21.008,21.02,21.008c11.601,0,21.01-9.404,21.01-21.008c0-1.604-0.216-3.148-0.554-4.647
		c3.126-2.443,6.115-4.224,7.688-4.929c5.17-2.329,13.04-2.995,18.487-2.037c14.08,2.457,26.382,10.712,33.231,14.992
		c1.988,3.622,5.795,6.106,10.223,6.106c6.478,0,11.718-5.25,11.718-11.725c0-6.475-5.24-11.725-11.718-11.725
		c-3.687,0-6.937,1.738-9.088,4.402c-7.447-4.484-20.113-12.442-35.735-14.579c-5.994-0.819-14.603-0.289-20.266,2.073
		c-2.105,0.877-6.482,3.332-10.687,6.752c-2.321-2.171-5.133-3.763-8.254-4.708c4.156-1.976,7.654-6.03,7.654-10.542
		c0-9.596-9.679-20.682-13.711-26.387c-4.037,5.707-13.723,16.793-13.723,26.387c0,4.511,3.507,8.563,7.664,10.542
		c-3.118,0.945-5.931,2.54-8.252,4.708c-4.207-3.42-8.585-5.875-10.695-6.752c-5.663-2.363-14.277-2.892-20.266-2.073
		c-15.622,2.137-28.287,10.092-35.735,14.579c-2.151-2.664-5.398-4.402-9.083-4.402c-6.47,0-11.733,5.25-11.733,11.725
		C832.615,263.657,837.878,268.907,844.35,268.907z"/>
	<path d="M899.318,380.572h-9.317l-38.673-101.38c-1.033-2.705-3.624-4.499-6.529-4.499c-2.892,0-5.486,1.794-6.514,4.499
		l-38.673,101.38h-9.326c3.274,23.015,26.428,40.866,54.513,40.866C872.9,421.435,896.059,403.585,899.318,380.572z
		 M814.561,380.572l30.239-79.311l30.249,79.311H814.561z"/>
	<path d="M1069.251,380.572l-38.664-101.38c-1.033-2.705-3.634-4.499-6.519-4.499c-2.897,0-5.496,1.794-6.529,4.499l-38.664,101.38
		h-9.331c3.269,23.015,26.423,40.866,54.523,40.866c28.09,0,51.24-17.85,54.518-40.866L1069.251,380.572L1069.251,380.572z
		 M993.82,380.572l30.249-79.311l30.242,79.311H993.82z"/>
</g>
<g>
	<path fill="none" stroke="#BFA16A" stroke-width="13" stroke-miterlimit="10" d="M738.2,757.048V983.97
		c0,96.097,77.902,174,174,174s174-77.902,174-174V757.048H738.2z"/>
	<g>
		<g>
			<path fill="#BFA16A" d="M951.531,1030.597h-14.348c-1.16-9.878-7.88-17.95-16.989-21.022v-98.097
				c4.32-2.503,7.223-6.935,7.223-12.028c0-0.437-0.025-0.864-0.069-1.289h-30.299c-0.048,0.424-0.072,0.854-0.072,1.289
				c0,5.093,2.901,9.521,7.224,12.026v98.1c-9.111,3.074-15.822,11.144-16.982,21.019h-14.345c-5.28,0-9.563,4.285-9.563,9.565v7.98
				h97.776v-7.98C961.083,1034.88,956.8,1030.597,951.531,1030.597z"/>
			<path fill="#BFA16A" d="M846.948,884.999c3.204,0,5.958-1.799,7.403-4.422c4.958-3.1,13.873-9.079,24.072-10.859
				c3.942-0.694,9.644-0.209,13.385,1.475c1.137,0.511,3.305,1.803,5.574,3.57c-0.25,1.086-0.405,2.204-0.405,3.366
				c0,8.405,6.82,15.216,15.225,15.216c8.403,0,15.218-6.811,15.218-15.216c0-1.162-0.157-2.28-0.401-3.366
				c2.264-1.769,4.429-3.06,5.569-3.57c3.745-1.687,9.445-2.169,13.391-1.475c10.199,1.78,19.109,7.759,24.07,10.859
				c1.44,2.623,4.197,4.422,7.405,4.422c4.692,0,8.487-3.803,8.487-8.493s-3.796-8.493-8.487-8.493
				c-2.671,0-5.025,1.259-6.583,3.188c-5.394-3.248-14.568-9.012-25.883-10.56c-4.341-0.593-10.577-0.21-14.679,1.502
				c-1.525,0.636-4.695,2.414-7.741,4.891c-1.681-1.572-3.718-2.725-5.979-3.41c3.01-1.431,5.544-4.368,5.544-7.635
				c0-6.951-7.01-14.98-9.931-19.112c-2.924,4.134-9.94,12.163-9.94,19.112c0,3.268,2.54,6.202,5.551,7.635
				c-2.259,0.685-4.296,1.84-5.977,3.41c-3.047-2.477-6.218-4.255-7.746-4.891c-4.102-1.711-10.341-2.095-14.679-1.502
				c-11.315,1.547-20.489,7.31-25.883,10.56c-1.558-1.93-3.91-3.188-6.579-3.188c-4.687,0-8.498,3.803-8.498,8.493
				S842.26,884.999,846.948,884.999z"/>
			<path fill="#BFA16A" d="M886.763,965.88h-6.748l-28.012-73.432c-0.748-1.959-2.625-3.259-4.729-3.259
				c-2.095,0-3.974,1.299-4.718,3.259l-28.012,73.432h-6.755c2.371,16.67,19.142,29.6,39.485,29.6
				C867.628,995.478,884.402,982.548,886.763,965.88z M825.371,965.88l21.903-57.446l21.91,57.446H825.371z"/>
			<path fill="#BFA16A" d="M1009.848,965.88l-28.005-73.432c-0.748-1.959-2.632-3.259-4.722-3.259c-2.099,0-3.981,1.299-4.729,3.259
				l-28.005,73.432h-6.759c2.368,16.67,19.139,29.6,39.492,29.6c20.346,0,37.114-12.929,39.489-29.6H1009.848L1009.848,965.88z
				 M955.212,965.88l21.91-57.446l21.904,57.446H955.212z"/>
		</g>
	</g>
</g>
</svg>
